#N canvas 97 204 444 499 12;
#X declare -path Fraise;
#X declare -lib iemlib -lib zexy;
#N canvas 911 227 790 607 Fraise 0;
#X obj 35 9 declare -path Fraise;
#X obj 38 230 fruit/receive boutonswifi1;
#X obj 38 201 fruit/send boutonswifi1;
#X msg 74 175 103;
#X msg 108 175 120;
#X obj 38 255 route b;
#X obj 39 495 tgl 20 0 empty empty empty 0 -10 0 12 #fcfcfc #000000 #000000 0 1;
#X obj 61 495 tgl 20 0 empty empty empty 0 -10 0 12 #fcfcfc #000000 #000000 0 1;
#X obj 84 495 tgl 20 0 empty empty empty 0 -10 0 12 #fcfcfc #000000 #000000 0 1;
#X obj 107 495 tgl 20 0 empty empty empty 0 -10 0 12 #fcfcfc #000000 #000000 0 1;
#X obj 130 495 tgl 20 0 empty empty empty 0 -10 0 12 #fcfcfc #000000 #000000 0 1;
#X obj 153 495 tgl 20 0 empty empty empty 0 -10 0 12 #fcfcfc #000000 #000000 0 1;
#X obj 176 495 tgl 20 0 empty empty empty 0 -10 0 12 #fcfcfc #000000 #000000 0 1;
#X obj 198 495 tgl 20 0 empty empty empty 0 -10 0 12 #fcfcfc #000000 #000000 0 1;
#X obj 221 495 tgl 20 0 empty empty empty 0 -10 0 12 #fcfcfc #000000 #000000 0 1;
#X obj 244 495 tgl 20 0 empty empty empty 0 -10 0 12 #fcfcfc #000000 #000000 0 1;
#X obj 267 495 tgl 20 0 empty empty empty 0 -10 0 12 #fcfcfc #000000 #000000 0 1;
#X obj 290 495 tgl 20 0 empty empty empty 0 -10 0 12 #fcfcfc #000000 #000000 0 1;
#X obj 313 495 tgl 20 0 empty empty empty 0 -10 0 12 #fcfcfc #000000 #000000 0 1;
#X obj 335 495 tgl 20 0 empty empty empty 0 -10 0 12 #fcfcfc #000000 #000000 0 1;
#X obj 358 495 tgl 20 0 empty empty empty 0 -10 0 12 #fcfcfc #000000 #000000 0 1;
#X obj 381 495 tgl 20 0 empty empty empty 0 -10 0 12 #fcfcfc #000000 #000000 0 1;
#X obj 404 495 tgl 20 0 empty empty empty 0 -10 0 12 #fcfcfc #000000 #000000 0 1;
#X obj 427 495 tgl 20 0 empty empty empty 0 -10 0 12 #fcfcfc #000000 #000000 0 1;
#X obj 450 495 tgl 20 0 empty empty empty 0 -10 0 12 #fcfcfc #000000 #000000 0 1;
#X obj 472 495 tgl 20 0 empty empty empty 0 -10 0 12 #fcfcfc #000000 #000000 0 1;
#X obj 495 495 tgl 20 0 empty empty empty 0 -10 0 12 #fcfcfc #000000 #000000 0 1;
#X obj 518 495 tgl 20 0 empty empty empty 0 -10 0 12 #fcfcfc #000000 #000000 0 1;
#X obj 541 495 tgl 20 0 empty empty empty 0 -10 0 12 #fcfcfc #000000 #000000 0 1;
#X obj 564 495 tgl 20 0 empty empty empty 0 -10 0 12 #fcfcfc #000000 #000000 0 1;
#X obj 587 495 tgl 20 0 empty empty empty 0 -10 0 12 #fcfcfc #000000 #000000 0 1;
#X obj 39 467 route 0 1 2 3 4 5 6 7 8 9 10 11 12 13 14 15 16 17 18 19 20 21 22 23 24, f 82;
#X obj 38 125 metro 100;
#X obj 38 100 tgl 20 0 empty empty empty 0 -10 0 12 #fcfcfc #000000 #000000 0 1;
#X obj 38 150 b;
#X msg 38 175 0;
#X obj 38 36 wifruit boutonswifi1 192.168.5.10;
#X obj 371 252 route b;
#X obj 371 227 fruit/receive boutonswifi2;
#X obj 371 277 unpack f f;
#X obj 371 335 + 12;
#X obj 371 360 pack f f, f 10;
#X msg 407 171 103;
#X msg 441 171 120;
#X obj 371 121 metro 100;
#X obj 371 96 tgl 20 0 empty empty empty 0 -10 0 12 #fcfcfc #000000 #000000 0 1;
#X obj 371 146 b;
#X msg 371 171 0;
#X obj 371 31 wifruit boutonswifi2 192.168.5.11;
#X obj 371 197 fruit/send boutonswifi2;
#X obj 38 391 s BUTTONS;
#X obj 371 385 s BUTTONS;
#X obj 39 441 r BUTTONS;
#X obj 38 280 unpack f f;
#X obj 38 305 moses 12, f 9;
#X obj 38 330 pack f f;
#X obj 115 366 pack f f;
#X obj 115 341 - 12;
#X obj 115 391 s EXTRABUTTONS;
#X obj 371 306 moses 12;
#X obj 453 360 pack f f, f 10;
#X obj 453 385 s EXTRABUTTONS;
#X obj 40 577 tgl 20 0 empty empty empty 0 -10 0 12 #fcfcfc #000000 #000000 0 1;
#X obj 62 577 tgl 20 0 empty empty empty 0 -10 0 12 #fcfcfc #000000 #000000 0 1;
#X obj 85 577 tgl 20 0 empty empty empty 0 -10 0 12 #fcfcfc #000000 #000000 0 1;
#X obj 108 577 tgl 20 0 empty empty empty 0 -10 0 12 #fcfcfc #000000 #000000 0 1;
#X obj 131 577 tgl 20 0 empty empty empty 0 -10 0 12 #fcfcfc #000000 #000000 0 1;
#X obj 154 577 tgl 20 0 empty empty empty 0 -10 0 12 #fcfcfc #000000 #000000 0 1;
#X obj 177 577 tgl 20 0 empty empty empty 0 -10 0 12 #fcfcfc #000000 #000000 0 1;
#X obj 199 577 tgl 20 0 empty empty empty 0 -10 0 12 #fcfcfc #000000 #000000 0 1;
#X obj 222 577 tgl 20 0 empty empty empty 0 -10 0 12 #fcfcfc #000000 #000000 0 1;
#X obj 245 577 tgl 20 0 empty empty empty 0 -10 0 12 #fcfcfc #000000 #000000 0 1;
#X obj 268 577 tgl 20 0 empty empty empty 0 -10 0 12 #fcfcfc #000000 #000000 0 1;
#X obj 291 577 tgl 20 0 empty empty empty 0 -10 0 12 #fcfcfc #000000 #000000 0 1;
#X obj 314 577 tgl 20 0 empty empty empty 0 -10 0 12 #fcfcfc #000000 #000000 0 1;
#X obj 336 577 tgl 20 0 empty empty empty 0 -10 0 12 #fcfcfc #000000 #000000 0 1;
#X obj 359 577 tgl 20 0 empty empty empty 0 -10 0 12 #fcfcfc #000000 #000000 0 1;
#X obj 382 577 tgl 20 0 empty empty empty 0 -10 0 12 #fcfcfc #000000 #000000 0 1;
#X obj 405 577 tgl 20 0 empty empty empty 0 -10 0 12 #fcfcfc #000000 #000000 0 1;
#X obj 428 577 tgl 20 0 empty empty empty 0 -10 0 12 #fcfcfc #000000 #000000 0 1;
#X obj 451 577 tgl 20 0 empty empty empty 0 -10 0 12 #fcfcfc #000000 #000000 0 1;
#X obj 473 577 tgl 20 0 empty empty empty 0 -10 0 12 #fcfcfc #000000 #000000 0 1;
#X obj 496 577 tgl 20 0 empty empty empty 0 -10 0 12 #fcfcfc #000000 #000000 0 1;
#X obj 519 577 tgl 20 0 empty empty empty 0 -10 0 12 #fcfcfc #000000 #000000 0 1;
#X obj 542 577 tgl 20 0 empty empty empty 0 -10 0 12 #fcfcfc #000000 #000000 0 1;
#X obj 565 577 tgl 20 0 empty empty empty 0 -10 0 12 #fcfcfc #000000 #000000 0 1;
#X obj 588 577 tgl 20 0 empty empty empty 0 -10 0 12 #fcfcfc #000000 #000000 0 1;
#X obj 40 549 route 0 1 2 3 4 5 6 7 8 9 10 11 12 13 14 15 16 17 18 19 20 21 22 23 24, f 82;
#X obj 40 523 r EXTRABUTTONS;
#X connect 1 0 5 0;
#X connect 3 0 2 0;
#X connect 4 0 2 0;
#X connect 5 0 53 0;
#X connect 31 0 6 0;
#X connect 31 1 7 0;
#X connect 31 2 8 0;
#X connect 31 3 9 0;
#X connect 31 4 10 0;
#X connect 31 5 11 0;
#X connect 31 6 12 0;
#X connect 31 7 13 0;
#X connect 31 8 14 0;
#X connect 31 9 15 0;
#X connect 31 10 16 0;
#X connect 31 11 17 0;
#X connect 31 12 18 0;
#X connect 31 13 19 0;
#X connect 31 14 20 0;
#X connect 31 15 21 0;
#X connect 31 16 22 0;
#X connect 31 17 23 0;
#X connect 31 18 24 0;
#X connect 31 19 25 0;
#X connect 31 20 26 0;
#X connect 31 21 27 0;
#X connect 31 22 28 0;
#X connect 31 23 29 0;
#X connect 31 24 30 0;
#X connect 32 0 34 0;
#X connect 33 0 32 0;
#X connect 34 0 35 0;
#X connect 35 0 2 0;
#X connect 36 0 33 0;
#X connect 37 0 39 0;
#X connect 38 0 37 0;
#X connect 39 0 59 0;
#X connect 39 1 41 1;
#X connect 39 1 60 1;
#X connect 40 0 41 0;
#X connect 41 0 51 0;
#X connect 42 0 49 0;
#X connect 43 0 49 0;
#X connect 44 0 46 0;
#X connect 45 0 44 0;
#X connect 46 0 47 0;
#X connect 47 0 49 0;
#X connect 48 0 45 0;
#X connect 52 0 31 0;
#X connect 53 0 54 0;
#X connect 53 1 55 1;
#X connect 53 1 56 1;
#X connect 54 0 55 0;
#X connect 54 1 57 0;
#X connect 55 0 50 0;
#X connect 56 0 58 0;
#X connect 57 0 56 0;
#X connect 59 0 40 0;
#X connect 59 1 60 0;
#X connect 60 0 61 0;
#X connect 87 0 62 0;
#X connect 87 1 63 0;
#X connect 87 2 64 0;
#X connect 87 3 65 0;
#X connect 87 4 66 0;
#X connect 87 5 67 0;
#X connect 87 6 68 0;
#X connect 87 7 69 0;
#X connect 87 8 70 0;
#X connect 87 9 71 0;
#X connect 87 10 72 0;
#X connect 87 11 73 0;
#X connect 87 12 74 0;
#X connect 87 13 75 0;
#X connect 87 14 76 0;
#X connect 87 15 77 0;
#X connect 87 16 78 0;
#X connect 87 17 79 0;
#X connect 87 18 80 0;
#X connect 87 19 81 0;
#X connect 87 20 82 0;
#X connect 87 21 83 0;
#X connect 87 22 84 0;
#X connect 87 23 85 0;
#X connect 87 24 86 0;
#X connect 88 0 87 0;
#X restore 14 11 pd Fraise;
#N canvas 22 0 678 296 Master 0;
#X obj 56 55 catch~ out-left;
#X obj 180 55 catch~ out-rigth;
#X obj 101 209 limiter~;
#X obj 57 209 z~ 64;
#X obj 57 235 *~;
#X msg 317 86 \$1 20;
#X obj 317 111 line~;
#X obj 56 173 *~;
#X obj 317 61 pow 2;
#X obj 56 94 hip~ 20;
#X obj 181 209 z~ 64;
#X obj 181 235 *~;
#X obj 180 173 *~;
#X obj 180 87 hip~ 20;
#X obj 57 260 dac~, f 18;
#X floatatom 399 98 5 0 0 0 - - - 0;
#X obj 31 17 declare -lib iemlib -lib zexy;
#X obj 224 209 limiter~;
#X obj 317 37 inlet;
#X msg 477 65 \; pd dsp 1;
#X obj 461 25 loadbang;
#X msg 461 193 0 \, 1;
#X msg 461 218 \; pd dsp \$1;
#X obj 461 116 del 5000;
#X obj 562 49 adc~;
#X obj 562 74 env~;
#X msg 461 141 1;
#X obj 562 99 moses 4;
#X msg 608 122 0;
#X obj 461 166 metro 2000;
#X connect 0 0 9 0;
#X connect 1 0 13 0;
#X connect 2 0 4 1;
#X connect 3 0 4 0;
#X connect 4 0 14 0;
#X connect 5 0 6 0;
#X connect 6 0 7 1;
#X connect 6 0 12 1;
#X connect 7 0 2 0;
#X connect 7 0 3 0;
#X connect 8 0 5 0;
#X connect 8 0 15 0;
#X connect 9 0 7 0;
#X connect 10 0 11 0;
#X connect 11 0 14 1;
#X connect 12 0 10 0;
#X connect 12 0 17 0;
#X connect 13 0 12 0;
#X connect 17 0 11 1;
#X connect 18 0 8 0;
#X connect 20 0 19 0;
#X connect 20 0 23 0;
#X connect 21 0 22 0;
#X connect 23 0 26 0;
#X connect 24 0 25 0;
#X connect 25 0 27 0;
#X connect 26 0 29 0;
#X connect 27 1 28 0;
#X connect 28 0 29 0;
#X connect 29 0 21 0;
#X restore 15 62 pd Master;
#X obj 15 94 loadbang;
#X obj 15 144 s STATE;
#N canvas 1145 487 450 300 ready 0;
#X obj 26 76 spigot, f 12;
#X obj 26 131 t f f, f 10;
#X obj 107 25 state_is ready;
#X obj 107 50 tgl 20 0 empty empty empty 0 -10 0 12 #fcfcfc #000000 #000000 0 1;
#X obj 26 218 s STATE;
#X msg 26 193 symbol button_pushed;
#X obj 26 25 r BUTTONS;
#X obj 93 158 s current_button;
#X obj 26 104 unpack f;
#X obj 223 159 s play_machine;
#X msg 42 49 0;
#X obj 133 104 bng 20 250 50 0 empty empty empty 0 -10 0 12 #fcfcfc #000000 #000000;
#X floatatom 215 117 5 0 0 0 - - - 0;
#X connect 0 0 8 0;
#X connect 0 0 11 0;
#X connect 1 0 5 0;
#X connect 1 1 7 0;
#X connect 1 1 9 0;
#X connect 1 1 12 0;
#X connect 2 0 3 0;
#X connect 3 0 0 1;
#X connect 5 0 4 0;
#X connect 6 0 0 0;
#X connect 8 0 1 0;
#X connect 10 0 0 0;
#X restore 275 101 pd ready;
#X symbolatom 275 64 14 0 0 0 - STATE - 0;
#X text 273 41 STATE;
#N canvas 1478 182 432 300 button_pushed 0;
#X obj 26 76 spigot, f 12;
#X obj 107 50 tgl 20 0 empty empty empty 0 -10 0 12 #fcfcfc #000000 #000000 0 1;
#X obj 245 250 s STATE;
#X obj 26 25 r BUTTONS;
#X obj 245 160 del 1000;
#X msg 245 190 symbol instruction;
#X msg 198 132 stop;
#X obj 26 101 sel 0;
#X obj 58 251 s play_machine;
#X msg 92 186 symbol freestyle;
#X obj 107 25 state_is button_pushed;
#X obj 245 101 sel 1 0;
#X msg 268 129 stop;
#X obj 26 51 unpack f;
#X floatatom 107 145 5 0 0 0 - - - 0;
#X floatatom 20 146 5 0 0 0 - - - 0;
#X obj 74 102 r current_button;
#X connect 0 0 7 0;
#X connect 1 0 0 1;
#X connect 1 0 11 0;
#X connect 3 0 13 0;
#X connect 4 0 5 0;
#X connect 5 0 2 0;
#X connect 6 0 4 0;
#X connect 7 0 15 0;
#X connect 7 1 6 0;
#X connect 7 1 8 0;
#X connect 7 1 9 0;
#X connect 9 0 2 0;
#X connect 10 0 1 0;
#X connect 11 0 4 0;
#X connect 11 1 12 0;
#X connect 12 0 4 0;
#X connect 13 0 0 0;
#X connect 16 0 7 1;
#X connect 16 0 14 0;
#X restore 275 130 pd button_pushed;
#N canvas 0 0 339 298 freestyle 0;
#X obj 26 76 spigot, f 12;
#X obj 107 50 tgl 20 0 empty empty empty 0 -10 0 12 #fcfcfc #000000 #000000 0 1;
#X obj 26 25 r BUTTONS;
#X obj 26 251 s play_machine;
#X obj 107 25 state_is freestyle;
#X obj 163 252 s STATE;
#X obj 163 103 sel 1 0;
#X msg 186 131 stop;
#X obj 117 121 b;
#X msg 163 192 symbol ready;
#X obj 163 162 del 5000;
#X obj 26 51 unpack f;
#X connect 0 0 3 0;
#X connect 0 0 8 0;
#X connect 1 0 0 1;
#X connect 1 0 6 0;
#X connect 2 0 11 0;
#X connect 4 0 1 0;
#X connect 6 0 10 0;
#X connect 6 1 7 0;
#X connect 7 0 10 0;
#X connect 8 0 10 0;
#X connect 9 0 5 0;
#X connect 10 0 9 0;
#X connect 11 0 0 0;
#X restore 275 211 pd freestyle;
#N canvas 1073 92 374 526 instruction 0;
#X obj 37 15 state_is instruction;
#X obj 37 71 sel 1 0, f 12;
#X obj 37 157 t b b, f 13;
#X obj 125 287 s wanted_button;
#X obj 125 184 random 23;
#X obj 125 209 + 1;
#X obj 125 234 +;
#X obj 157 233 r current_button;
#X obj 125 259 mod 24;
#X obj 105 128 bng 20 250 50 0 empty empty empty 0 -10 0 12 #fcfcfc #000000 #000000;
#X floatatom 177 261 5 0 0 0 - - - 0;
#X obj 37 481 s STATE;
#X msg 37 454 symbol wait_push;
#X obj 37 329 spigot, f 36;
#X obj 37 43 t f f, f 36;
#X obj 37 429 spigot, f 39;
#X obj 37 378 f;
#X obj 37 354 b;
#X msg 71 353 0;
#X obj 37 129 del 1000;
#X msg 77 98 stop;
#X obj 37 403 button_player instructions;
#X obj 185 126 r NB_BUTTONS;
#X obj 185 156 - 1;
#X msg 72 287 5;
#X obj 69 377 r wanted_button;
#X obj 149 73 r INIT_SEED;
#X msg 149 98 seed \$1;
#X connect 0 0 14 0;
#X connect 1 0 19 0;
#X connect 1 1 20 0;
#X connect 2 0 13 0;
#X connect 2 1 4 0;
#X connect 4 0 5 0;
#X connect 5 0 6 0;
#X connect 6 0 8 0;
#X connect 7 0 6 1;
#X connect 8 0 3 0;
#X connect 8 0 10 0;
#X connect 9 0 2 0;
#X connect 12 0 11 0;
#X connect 13 0 17 0;
#X connect 14 0 1 0;
#X connect 14 1 13 1;
#X connect 14 1 15 1;
#X connect 15 0 12 0;
#X connect 16 0 21 0;
#X connect 17 0 16 0;
#X connect 18 0 16 0;
#X connect 19 0 2 0;
#X connect 20 0 19 0;
#X connect 21 0 15 0;
#X connect 22 0 23 0;
#X connect 22 0 8 1;
#X connect 23 0 4 1;
#X connect 24 0 16 0;
#X connect 25 0 16 1;
#X connect 26 0 27 0;
#X connect 27 0 4 0;
#X restore 275 157 pd instruction;
#X obj 18 177 loadbang;
#X msg 18 246 dir;
#X obj 18 271 pdcontrol;
#X msg 18 296 symbol \$1/wavs;
#X obj 18 321 s WAVPATH;
#N canvas 269 675 559 300 machines_player 0;
#X obj 65 34 r play_machine;
#X obj 65 86 i;
#X obj 100 86 + 1;
#X obj 100 111 mod 10;
#X obj 65 140 pack f f, f 15;
#X obj 65 59 t b f, f 15;
#X msg 213 26 0;
#X obj 65 169 clone -x button_player 10 machines;
#X connect 0 0 5 0;
#X connect 1 0 2 0;
#X connect 1 0 4 0;
#X connect 2 0 3 0;
#X connect 3 0 1 1;
#X connect 4 0 7 0;
#X connect 5 0 1 0;
#X connect 5 1 4 1;
#X connect 6 0 5 0;
#X restore 18 366 pd machines_player;
#X msg 15 119 symbol none \, symbol ready;
#N canvas 1064 53 557 663 wait_push 0;
#X obj 26 100 spigot, f 12;
#X obj 107 50 tgl 20 0 empty empty empty 0 -10 0 12 #fcfcfc #000000 #000000 0 1;
#X obj 26 25 r BUTTONS;
#X obj 26 156 unpack f;
#X obj 107 25 state_is wait_push;
#X obj 26 186 sel, f 11;
#X obj 307 180 sequence_player trop_tard;
#X obj 307 149 del 4000;
#X obj 307 97 sel 1 0;
#X msg 330 124 stop;
#X msg 272 180 0;
#X obj 100 619 s STATE;
#X msg 100 591 symbol ready;
#X obj 100 305 button_player mauvais_bouton;
#X obj 100 212 b;
#X obj 100 279 f;
#X obj 177 249 buzz 70 800;
#X obj 100 247 del 600;
#X floatatom 137 281 5 0 0 0 - - - 0;
#X obj 63 245 bng 20 250 50 0 empty empty empty 0 -10 0 12 #fcfcfc #000000 #000000;
#X msg 319 262 5;
#X obj 26 523 sequence_player interviews;
#X floatatom 141 190 5 0 0 0 - - - 0;
#X obj 189 220 bng 20 250 50 0 empty empty empty 0 -10 0 12 #fcfcfc #000000 #000000;
#X obj 26 128 t a b;
#X obj 118 154 r wanted_button;
#X msg 84 130 0;
#X obj 26 295 f;
#X obj 26 456 button_player boutons_appui;
#X msg 243 458 abort;
#X obj 46 336 s play_machine;
#X obj 26 370 t b f, f 8;
#X obj 26 428 f, f 8;
#X obj 26 400 del 1200;
#X obj 26 490 del 500;
#X obj 243 424 r abort_interview;
#X connect 0 0 24 0;
#X connect 1 0 0 1;
#X connect 1 0 8 0;
#X connect 2 0 0 0;
#X connect 3 0 5 0;
#X connect 4 0 1 0;
#X connect 5 0 27 0;
#X connect 5 1 14 0;
#X connect 6 0 12 0;
#X connect 7 0 10 0;
#X connect 7 0 6 0;
#X connect 8 0 7 0;
#X connect 8 1 9 0;
#X connect 9 0 7 0;
#X connect 9 0 17 0;
#X connect 9 0 33 0;
#X connect 9 0 34 0;
#X connect 10 0 0 1;
#X connect 12 0 11 0;
#X connect 13 0 12 0;
#X connect 14 0 16 0;
#X connect 14 0 17 0;
#X connect 15 0 13 0;
#X connect 15 0 18 0;
#X connect 17 0 15 0;
#X connect 19 0 15 0;
#X connect 20 0 13 0;
#X connect 21 0 12 0;
#X connect 23 0 16 0;
#X connect 24 0 3 0;
#X connect 24 1 9 0;
#X connect 24 1 26 0;
#X connect 25 0 5 1;
#X connect 25 0 15 1;
#X connect 25 0 22 0;
#X connect 25 0 27 1;
#X connect 26 0 0 1;
#X connect 27 0 30 0;
#X connect 27 0 31 0;
#X connect 28 0 34 0;
#X connect 29 0 21 0;
#X connect 31 0 33 0;
#X connect 31 1 32 1;
#X connect 32 0 28 0;
#X connect 33 0 32 0;
#X connect 34 0 21 0;
#X connect 35 0 29 0;
#X restore 275 184 pd wait_push;
#X msg 133 272 24;
#X obj 133 297 s NB_BUTTONS;
#X obj 18 212 del 10;
#X obj 85 176 bng 20 250 50 0 empty empty empty 0 -10 0 12 #fcfcfc #000000 #000000;
#X obj 281 293 bng 20 250 50 0 push_random_button empty push_random_button 0 -10 0 12 #fcfcfc #000000 #000000;
#X obj 280 336 bng 20 250 50 0 push_wanted_button empty push_wanted_button 0 -10 0 12 #fcfcfc #000000 #000000;
#X obj 280 380 bng 20 250 50 0 abort_interview empty abort_interview 0 -10 0 12 #fcfcfc #000000 #000000;
#X obj 18 37 hsl 170 20 0 1 0 1 empty empty empty -2 -10 0 12 #ffc7c6 #000000 #000000 12900 1;
#N canvas 735 420 450 300 tests 0;
#X obj 79 39 r wanted_button;
#X obj 61 66 f;
#X msg 61 91 \$1 1;
#X obj 50 41 bng 20 250 50 0 empty empty empty 0 -10 0 12 #fcfcfc #000000 #000000;
#X obj 239 65 random 24;
#X msg 239 90 \$1 1;
#X obj 238 43 bng 20 250 50 0 empty empty empty 0 -10 0 12 #fcfcfc #000000 #000000;
#X obj 309 65 r NB_BUTTONS;
#X obj 264 41 r push_random_button;
#X obj 171 158 s BUTTONS;
#X obj 50 15 r push_wanted_button;
#X connect 0 0 1 1;
#X connect 1 0 2 0;
#X connect 2 0 9 0;
#X connect 3 0 1 0;
#X connect 4 0 5 0;
#X connect 5 0 9 0;
#X connect 6 0 4 0;
#X connect 7 0 4 1;
#X connect 8 0 4 0;
#X connect 10 0 3 0;
#X restore 19 400 pd tests;
#N canvas 609 505 450 325 random_seed 0;
#X obj 76 28 r BUTTONS;
#X obj 76 53 unpack f;
#X obj 76 78 spigot 1;
#X msg 122 131 0;
#X obj 76 103 t f b b;
#X obj 94 163 realtime;
#X obj 76 188 +;
#X floatatom 107 219 8 0 0 0 - - - 0;
#X obj 76 213 i;
#X obj 76 238 s INIT_SEED;
#X msg 141 78 1;
#X connect 0 0 1 0;
#X connect 1 0 2 0;
#X connect 2 0 4 0;
#X connect 3 0 2 1;
#X connect 4 0 6 0;
#X connect 4 1 5 1;
#X connect 4 2 3 0;
#X connect 5 0 6 1;
#X connect 6 0 7 0;
#X connect 6 0 8 0;
#X connect 8 0 9 0;
#X connect 10 0 2 1;
#X restore 20 435 pd random_seed;
#N canvas 582 418 385 300 shutdown 1;
#X obj 30 10 r EXTRABUTTONS;
#X obj 30 92 tgl 20 0 empty empty empty 0 -10 0 12 #fcfcfc #000000 #000000 0 1;
#X obj 30 67 route 4;
#X text 89 67 4: boutons1 pin 16;
#X obj 30 117 change;
#X obj 30 142 sel 1 0;
#X msg 53 168 stop;
#X msg 30 240 sudo halt;
#X obj 30 265 ggee/shell;
#X listbox 48 40 20 0 0 0 - - - 0;
#X obj 113 238 print shutdown!;
#X obj 30 200 del 3000;
#X connect 0 0 2 0;
#X connect 0 0 9 0;
#X connect 1 0 4 0;
#X connect 2 0 1 0;
#X connect 4 0 5 0;
#X connect 5 0 11 0;
#X connect 5 1 6 0;
#X connect 6 0 11 0;
#X connect 7 0 8 0;
#X connect 11 0 7 0;
#X connect 11 0 10 0;
#X restore 20 463 pd shutdown;
#X connect 2 0 16 0;
#X connect 10 0 20 0;
#X connect 11 0 12 0;
#X connect 12 0 13 0;
#X connect 13 0 14 0;
#X connect 16 0 3 0;
#X connect 18 0 19 0;
#X connect 20 0 11 0;
#X connect 20 0 18 0;
#X connect 21 0 20 0;
#X connect 25 0 1 0;
