#N canvas 72 96 1178 509 12;
#X declare -path Fraise;
#X obj 35 9 declare -path Fraise;
#X obj 36 188 fruit/receive boutonswifi1;
#X obj 38 154 fruit/send boutonswifi1;
#X msg 38 127 103;
#X msg 72 127 120;
#X obj 36 284 print;
#X obj 36 213 route b;
#X listbox 52 244 20 0 0 0 - - - 0;
#X obj 96 310 tgl 20 0 empty empty empty 0 -10 0 12 #fcfcfc #000000 #000000 0 1;
#X obj 118 310 tgl 20 0 empty empty empty 0 -10 0 12 #fcfcfc #000000 #000000 0 1;
#X obj 141 310 tgl 20 0 empty empty empty 0 -10 0 12 #fcfcfc #000000 #000000 0 1;
#X obj 164 310 tgl 20 0 empty empty empty 0 -10 0 12 #fcfcfc #000000 #000000 0 1;
#X obj 187 310 tgl 20 0 empty empty empty 0 -10 0 12 #fcfcfc #000000 #000000 0 1;
#X obj 210 310 tgl 20 0 empty empty empty 0 -10 0 12 #fcfcfc #000000 #000000 0 1;
#X obj 233 310 tgl 20 0 empty empty empty 0 -10 0 12 #fcfcfc #000000 #000000 0 1;
#X obj 255 310 tgl 20 0 empty empty empty 0 -10 0 12 #fcfcfc #000000 #000000 0 1;
#X obj 278 310 tgl 20 0 empty empty empty 0 -10 0 12 #fcfcfc #000000 #000000 0 1;
#X obj 301 310 tgl 20 0 empty empty empty 0 -10 0 12 #fcfcfc #000000 #000000 0 1;
#X obj 324 310 tgl 20 0 empty empty empty 0 -10 0 12 #fcfcfc #000000 #000000 0 1;
#X obj 347 310 tgl 20 0 empty empty empty 0 -10 0 12 #fcfcfc #000000 #000000 0 1;
#X obj 370 310 tgl 20 0 empty empty empty 0 -10 0 12 #fcfcfc #000000 #000000 0 1;
#X obj 392 310 tgl 20 0 empty empty empty 0 -10 0 12 #fcfcfc #000000 #000000 0 1;
#X obj 415 310 tgl 20 0 empty empty empty 0 -10 0 12 #fcfcfc #000000 #000000 0 1;
#X obj 438 310 tgl 20 0 empty empty empty 0 -10 0 12 #fcfcfc #000000 #000000 0 1;
#X obj 461 310 tgl 20 0 empty empty empty 0 -10 0 12 #fcfcfc #000000 #000000 0 1;
#X obj 484 310 tgl 20 0 empty empty empty 0 -10 0 12 #fcfcfc #000000 #000000 0 1;
#X obj 507 310 tgl 20 0 empty empty empty 0 -10 0 12 #fcfcfc #000000 #000000 0 1;
#X obj 529 310 tgl 20 0 empty empty empty 0 -10 0 12 #fcfcfc #000000 #000000 0 1;
#X obj 552 310 tgl 20 0 empty empty empty 0 -10 0 12 #fcfcfc #000000 #000000 0 1;
#X obj 575 310 tgl 20 0 empty empty empty 0 -10 0 12 #fcfcfc #000000 #000000 0 1;
#X obj 598 310 tgl 20 0 empty empty empty 0 -10 0 12 #fcfcfc #000000 #000000 0 1;
#X obj 621 310 tgl 20 0 empty empty empty 0 -10 0 12 #fcfcfc #000000 #000000 0 1;
#X obj 644 310 tgl 20 0 empty empty empty 0 -10 0 12 #fcfcfc #000000 #000000 0 1;
#X obj 96 282 route 0 1 2 3 4 5 6 7 8 9 10 11 12 13 14 15 16 17 18 19 20 21 22 23 24, f 82;
#X msg 85 344 \$1 1;
#X obj 85 369 line~;
#X obj 88 422 *~, f 7;
#X obj 130 368 noise~;
#X obj 88 447 *~;
#X obj 237 442 line~;
#X msg 237 417 \$1 10;
#X obj 240 368 hsl 170 20 0 1 0 0 empty empty empty -2 -10 0 12 #fcfcfc #000000 #000000 0 1;
#X obj 237 393 pow 2;
#X obj 84 486 dac~;
#X msg 326 440 \; pd dsp 1;
#X obj 298 191 route l;
#X msg 298 216 1 \, 0 30;
#X obj 369 79 metro 100;
#X obj 364 45 tgl 20 0 empty empty empty 0 -10 0 12 #fcfcfc #000000 #000000 0 1;
#X msg 437 166 \$1 1;
#X obj 437 191 line~;
#X obj 437 216 *~, f 7;
#X obj 483 158 noise~;
#X msg 369 161 1 \, 0 30;
#X obj 132 395 bp~ 1200 5;
#X obj 482 186 bp~ 3200 5;
#X obj 369 104 b;
#X obj 408 106 bng 20 250 50 0 empty empty empty 0 -10 0 12 #fcfcfc #000000 #000000;
#X obj 533 54 metro 100;
#X obj 528 20 tgl 20 0 empty empty empty 0 -10 0 12 #fcfcfc #000000 #000000 0 1;
#X obj 533 79 b;
#X msg 533 104 0;
#X obj 36 36 wifruit boutonswifi1 192.168.5.10;
#X obj 688 45 wifruit boutonswifi1 192.168.5.11;
#X connect 1 0 6 0;
#X connect 1 0 45 0;
#X connect 3 0 2 0;
#X connect 4 0 2 0;
#X connect 6 0 5 0;
#X connect 6 0 7 0;
#X connect 6 0 33 0;
#X connect 8 0 34 0;
#X connect 33 0 8 0;
#X connect 33 1 9 0;
#X connect 33 2 10 0;
#X connect 33 3 11 0;
#X connect 33 4 12 0;
#X connect 33 5 13 0;
#X connect 33 6 14 0;
#X connect 33 7 15 0;
#X connect 33 8 16 0;
#X connect 33 9 17 0;
#X connect 33 10 18 0;
#X connect 33 11 19 0;
#X connect 33 12 20 0;
#X connect 33 13 21 0;
#X connect 33 14 22 0;
#X connect 33 15 23 0;
#X connect 33 16 24 0;
#X connect 33 17 25 0;
#X connect 33 18 26 0;
#X connect 33 19 27 0;
#X connect 33 20 28 0;
#X connect 33 21 29 0;
#X connect 33 22 30 0;
#X connect 33 23 31 0;
#X connect 33 24 32 0;
#X connect 34 0 35 0;
#X connect 35 0 36 0;
#X connect 36 0 38 0;
#X connect 37 0 54 0;
#X connect 38 0 43 0;
#X connect 38 0 43 1;
#X connect 39 0 38 1;
#X connect 40 0 39 0;
#X connect 41 0 42 0;
#X connect 42 0 40 0;
#X connect 45 0 46 0;
#X connect 46 0 35 0;
#X connect 47 0 56 0;
#X connect 48 0 47 0;
#X connect 49 0 50 0;
#X connect 50 0 51 0;
#X connect 51 0 38 0;
#X connect 52 0 55 0;
#X connect 53 0 50 0;
#X connect 54 0 36 1;
#X connect 55 0 51 1;
#X connect 56 0 53 0;
#X connect 56 0 3 0;
#X connect 57 0 56 0;
#X connect 58 0 60 0;
#X connect 59 0 58 0;
#X connect 60 0 61 0;
#X connect 61 0 2 0;
