#N canvas 0 0 564 475 12;
#X obj 206 10 r WAVPATH;
#X obj 34 90 list prepend, f 25;
#X obj 34 277 del 20;
#X obj 34 337 readsf~ 2, f 11;
#X obj 33 371 *~ 1;
#X obj 72 371 *~ 1;
#X obj 33 425 throw~ out-left;
#X obj 72 397 throw~ out-right;
#X obj 34 62 makefilename %02d.wav;
#X msg 34 302 start;
#X obj 34 252 t b a, f 8;
#X obj 34 33 inlet;
#X obj 226 429 outlet;
#X obj 206 37 list append \$1;
#X obj 358 85 inlet;
#X msg 206 65 symbol \$1/\$2;
#X obj 34 168 file isfile;
#X obj 34 218 symbol;
#X obj 34 143 t s s, f 6;
#X msg 34 115 symbol \$1/\$2;
#X obj 34 193 sel 1 0, f 18;
#X obj 95 220 symbol;
#X obj 223 297 print no such file;
#X msg 87 277 stop \, open \$1;
#X obj 226 390 b;
#X connect 0 0 13 0;
#X connect 1 0 19 0;
#X connect 2 0 9 0;
#X connect 3 0 4 0;
#X connect 3 1 5 0;
#X connect 3 2 12 0;
#X connect 4 0 6 0;
#X connect 5 0 7 0;
#X connect 8 0 1 0;
#X connect 9 0 3 0;
#X connect 10 0 2 0;
#X connect 10 1 23 0;
#X connect 11 0 8 0;
#X connect 13 0 15 0;
#X connect 14 0 5 1;
#X connect 14 0 4 1;
#X connect 15 0 1 1;
#X connect 16 0 20 0;
#X connect 16 1 21 0;
#X connect 17 0 10 0;
#X connect 18 0 16 0;
#X connect 18 1 17 1;
#X connect 18 1 21 1;
#X connect 19 0 18 0;
#X connect 20 0 17 0;
#X connect 20 1 21 0;
#X connect 21 0 22 0;
#X connect 21 0 24 0;
#X connect 23 0 3 0;
#X connect 24 0 12 0;
