#N canvas 0 0 403 361 12;
#X obj 70 36 inlet;
#X obj 70 61 t b b, f 9;
#X msg 70 111 0;
#X msg 130 86 1;
#X obj 70 161 *~, f 7;
#X obj 70 190 clip~ -1 1;
#X obj 68 316 throw~ out-left;
#X obj 107 288 throw~ out-right;
#X obj 150 31 bng 20 250 50 0 empty empty empty 0 -10 0 12 #fcfcfc #000000 #000000;
#X obj 70 136 * 500;
#X obj 70 219 hip~ 800;
#X obj 69 250 *~ 0.3;
#X obj 186 88 osc~ \$1;
#X obj 70 86 del \$2;
#X connect 0 0 1 0;
#X connect 1 0 13 0;
#X connect 1 1 3 0;
#X connect 2 0 9 0;
#X connect 3 0 9 0;
#X connect 4 0 5 0;
#X connect 5 0 10 0;
#X connect 8 0 1 0;
#X connect 9 0 4 0;
#X connect 10 0 11 0;
#X connect 11 0 6 0;
#X connect 11 0 7 0;
#X connect 12 0 4 1;
#X connect 13 0 2 0;
