#N canvas 1165 75 615 438 12;
#X obj 370 26 r WAVPATH;
#X obj 370 119 t b s b, f 14;
#X msg 465 145 clear;
#X obj 417 226 file glob;
#X msg 417 200 symbol \$1/*.wav;
#X obj 417 251 unpack s;
#X obj 109 199 t b s, f 8;
#X obj 109 224 del 20;
#X obj 109 283 readsf~ 2, f 11;
#X obj 108 317 *~ 1;
#X obj 147 317 *~ 1;
#X obj 108 371 throw~ out-left;
#X obj 147 343 throw~ out-right;
#X msg 162 224 stop \, open \$1;
#X msg 109 249 start;
#X obj 370 56 list append \$1;
#X msg 370 84 symbol \$1/\$2;
#X obj 465 171 text define \$1-wavs;
#X obj 417 278 text insert \$1-wavs 1e+06;
#X obj 370 303 text size \$1-wavs;
#X obj 109 174 text get \$1-wavs;
#X obj 42 13 inlet;
#X msg 42 88 stop;
#X obj 109 85 b;
#X obj 109 110 i;
#X obj 141 113 + 1;
#X obj 141 138 mod 10;
#X floatatom 370 328 5 0 0 0 - - - 0;
#X obj 194 31 inlet volume;
#X obj 140 86 bng 20 250 50 0 empty empty empty 0 -10 0 12 #fcfcfc #000000 #000000;
#X obj 268 376 outlet finished;
#X obj 268 148 bng 20 250 50 0 empty empty empty 0 -10 0 12 #fcfcfc #000000 #000000;
#X obj 42 38 route stop abort;
#X obj 204 61 r INIT_SEED;
#X msg 204 86 seed \$1 \, bang;
#X obj 204 111 random 65535;
#X connect 0 0 15 0;
#X connect 1 0 19 0;
#X connect 1 1 4 0;
#X connect 1 2 2 0;
#X connect 2 0 17 0;
#X connect 3 0 5 0;
#X connect 4 0 3 0;
#X connect 5 0 18 0;
#X connect 6 0 7 0;
#X connect 6 1 13 0;
#X connect 7 0 14 0;
#X connect 8 0 9 0;
#X connect 8 1 10 0;
#X connect 8 2 30 0;
#X connect 9 0 11 0;
#X connect 10 0 12 0;
#X connect 13 0 8 0;
#X connect 14 0 8 0;
#X connect 15 0 16 0;
#X connect 16 0 1 0;
#X connect 19 0 26 1;
#X connect 19 0 27 0;
#X connect 20 0 6 0;
#X connect 21 0 32 0;
#X connect 22 0 8 0;
#X connect 23 0 24 0;
#X connect 24 0 25 0;
#X connect 24 0 20 0;
#X connect 25 0 26 0;
#X connect 26 0 24 1;
#X connect 28 0 10 1;
#X connect 28 0 9 1;
#X connect 29 0 23 0;
#X connect 31 0 30 0;
#X connect 31 0 22 0;
#X connect 32 0 22 0;
#X connect 32 1 31 0;
#X connect 32 2 23 0;
#X connect 33 0 34 0;
#X connect 34 0 35 0;
#X connect 35 0 26 0;
