#N canvas 735 420 305 224 12;
#X obj 47 43 r STATE;
#X obj 47 68 sel \$1;
#X msg 47 93 1;
#X msg 86 93 0;
#X obj 47 118 change;
#X obj 47 143 outlet;
#X connect 0 0 1 0;
#X connect 1 0 2 0;
#X connect 1 1 3 0;
#X connect 2 0 4 0;
#X connect 3 0 4 0;
#X connect 4 0 5 0;
