#N canvas 764 232 853 625 12;
#X obj 172 356 tgl 20 0 empty empty empty 0 -10 0 12 #fcfcfc #000000 #000000 0 1;
#X msg 245 242 disconnect;
#X obj 172 331 netsend -u -b;
#X obj 93 173 list prepend 1;
#X obj 93 148 fudiformat -u;
#X obj 290 392 fudiparse;
#X obj 63 228 list prepend 0;
#X obj 93 124 r Fraise-\$1-C-rcv;
#X obj 63 201 r Fraise-\$1-rcv;
#X obj 260 420 s Fraise-\$1-snd;
#X obj 29 454 loadbang;
#X obj 194 166 bng 20 250 50 0 empty empty empty 0 -10 0 12 #fcfcfc #000000 #000000;
#X obj 27 266 r Fraise-\$1-RAW-rcv;
#X obj 523 397 s Fraise-\$1-RAW-rcv;
#X msg 523 366 2 1;
#X text 555 367 ping;
#X obj 513 284 metro 2000;
#X obj 11 29 tgl 20 0 \$0-on-snd \$0-on-rcv empty 0 -10 0 12 #fcfcfc #000000 #000000 0 1;
#X obj 456 347 del 1500;
#X msg 456 420 0;
#X msg 400 420 1;
#X obj 430 474 sel 0 1;
#X obj 32 29 cnv 20 260 20 empty \$0-can ip:193.168.4.248 10 12 0 12 #e8e828 #000000 0;
#X obj 430 550 s \$0-can;
#X msg 453 499 color 15 22 22;
#X msg 456 322 stop;
#X obj 260 363 route 0 1 2 3, f 18;
#X obj 338 458 unpack f f;
#X obj 338 483 * 256;
#X obj 338 508 +;
#X floatatom 338 533 5 0 0 3 retport - - 0;
#X obj 362 394 route 0 1;
#X msg 509 447 present \$1;
#X obj 180 457 s Fraise-\$1-RAW-snd;
#X msg 29 483 1;
#X obj 29 510 s \$0-on-rcv;
#X obj 268 76 r \$0-on-snd;
#X obj 222 134 sel 1 0;
#X obj 389 55 inlet;
#X obj 389 80 route on ip;
#X obj 389 105 s \$0-on-rcv;
#X obj 222 162 symbol \$2;
#X obj 426 137 route bang;
#X obj 426 162 symbol \$2;
#X obj 426 187 t a;
#X msg 430 525 color 10 22 11;
#X obj 344 271 s \$0-can;
#X msg 344 246 label ip:\$1;
#X obj 172 301 spigot;
#X obj 268 102 t f f f;
#X obj 134 543 outlet;
#X obj 272 544 bng 20 250 50 0 empty empty empty 0 -10 0 12 #fcfcfc #000000 #000000;
#X obj 216 365 bng 20 250 50 0 empty empty empty 0 -10 0 12 #fcfcfc #000000 #000000;
#X msg 57 125 V;
#X obj 430 449 change -1;
#X obj 222 189 pack s \$3;
#X msg 222 215 disconnect \, connect \$1 4343;
#X obj 335 304 s \$1-ip;
#X msg 642 114 V;
#X obj 723 116 list;
#X obj 562 65 route l present V, f 35;
#X listbox 10 50 40 0 0 0 - \$0-version - 0;
#X obj 562 37 fruit/receive \$1;
#X obj 613 148 fruit/send2 \$1, f 11;
#X obj 723 143 s \$0-version;
#X obj 642 91 sel 1 0;
#X msg 674 114 list _;
#X obj 562 92 print \$1-log, f 6;
#X connect 1 0 2 0;
#X connect 2 0 0 0;
#X connect 2 1 26 0;
#X connect 2 1 33 0;
#X connect 2 1 52 0;
#X connect 3 0 48 0;
#X connect 4 0 3 0;
#X connect 5 0 9 0;
#X connect 6 0 48 0;
#X connect 7 0 4 0;
#X connect 8 0 6 0;
#X connect 10 0 34 0;
#X connect 11 0 41 0;
#X connect 12 0 48 0;
#X connect 14 0 13 0;
#X connect 16 0 14 0;
#X connect 16 0 18 0;
#X connect 18 0 19 0;
#X connect 18 0 41 0;
#X connect 19 0 54 0;
#X connect 20 0 25 0;
#X connect 20 0 54 0;
#X connect 21 0 45 0;
#X connect 21 1 24 0;
#X connect 24 0 23 0;
#X connect 25 0 18 0;
#X connect 26 0 9 0;
#X connect 26 1 5 0;
#X connect 26 2 31 0;
#X connect 26 2 51 0;
#X connect 27 0 28 0;
#X connect 27 1 29 1;
#X connect 28 0 29 0;
#X connect 29 0 30 0;
#X connect 31 0 27 0;
#X connect 31 1 20 0;
#X connect 32 0 9 0;
#X connect 34 0 35 0;
#X connect 36 0 49 0;
#X connect 37 0 41 0;
#X connect 37 1 1 0;
#X connect 38 0 39 0;
#X connect 39 0 40 0;
#X connect 39 1 42 0;
#X connect 41 0 47 0;
#X connect 41 0 55 0;
#X connect 41 0 57 0;
#X connect 42 0 43 0;
#X connect 42 1 44 0;
#X connect 43 0 44 0;
#X connect 44 0 41 0;
#X connect 45 0 23 0;
#X connect 47 0 46 0;
#X connect 48 0 2 0;
#X connect 49 0 16 0;
#X connect 49 1 37 0;
#X connect 49 1 19 0;
#X connect 49 2 48 1;
#X connect 53 0 4 0;
#X connect 54 0 21 0;
#X connect 54 0 32 0;
#X connect 54 0 50 0;
#X connect 55 0 56 0;
#X connect 56 0 2 0;
#X connect 58 0 63 1;
#X connect 59 0 64 0;
#X connect 60 0 67 0;
#X connect 60 1 65 0;
#X connect 60 2 59 0;
#X connect 62 0 60 0;
#X connect 65 0 58 0;
#X connect 65 1 66 0;
#X connect 66 0 64 0;
#X coords 0 -1 1 1 285 60 1 10 10;
