#N canvas 95 155 441 470 12;
#X declare -path Fraise;
#X obj 15 8 declare -path Fraise;
#X obj 59 69 fruit/receive Palantir1;
#X obj 136 320 fruit/send Palantir1;
#X obj 160 98 print rcv;
#X msg 136 293 111;
#X obj 136 266 metro 1000;
#X obj 136 240 tgl 20 0 empty empty empty 0 -10 0 12 #fcfcfc #000000 #000000 0 1;
#X obj 53 241 tgl 20 0 empty empty empty 0 -10 0 12 #fcfcfc #000000 #000000 0 1;
#X floatatom 59 202 5 0 0 0 - - - 0;
#X msg 53 294 2;
#X floatatom 116 202 5 0 0 0 - - - 0;
#X obj 53 267 metro 100;
#X msg 47 431 1 i \$1 i \$2;
#X msg 49 387 10000 100;
#X msg 131 375 0 60000;
#X msg 260 268 V;
#X floatatom 172 201 5 0 0 0 - - - 0;
#X msg 130 400 0 10;
#X listbox 99 149 37 0 0 0 - - - 0;
#X obj 99 124 list;
#X obj 59 97 route l V0.0;
#X obj 59 177 route transfers pwm accel;
#X obj 74 148 bng 20 250 50 0 empty empty empty 0 -10 0 12 #fcfcfc #000000 #000000;
#X msg 219 270 E Hi;
#X obj 245 429 s Fraise-Palantir1-RAW-rcv;
#X obj 245 403 list prepend 3;
#X msg 245 372 0 0 0;
#X text 351 401 frame;
#X obj 15 34 wifruit Palantir1 192.168.4.1;
#X connect 1 0 20 0;
#X connect 4 0 2 0;
#X connect 5 0 4 0;
#X connect 6 0 5 0;
#X connect 7 0 11 0;
#X connect 9 0 2 0;
#X connect 11 0 9 0;
#X connect 12 0 2 0;
#X connect 13 0 12 0;
#X connect 14 0 12 0;
#X connect 15 0 2 1;
#X connect 17 0 12 0;
#X connect 19 0 18 0;
#X connect 19 0 22 0;
#X connect 20 0 21 0;
#X connect 20 1 19 0;
#X connect 20 2 3 0;
#X connect 21 0 8 0;
#X connect 21 1 10 0;
#X connect 21 2 16 0;
#X connect 23 0 2 1;
#X connect 25 0 24 0;
#X connect 26 0 25 0;
